inDegrees=no
num_controls=7
num_derivatives=13
num_iterations=82
num_multipliers=7
num_parameters=0
num_slacks=7
num_states=26
objective=0.334222
objective_accelerations=0.036450
objective_balance=0.001229
objective_effort=0.027285
objective_height=0.267606
objective_ligament=0.001652
solver_duration=831.768196
status=Solve_Succeeded
success=true
DataType=double
version=3
OpenSimVersion=4.5
endheader
time	/jointset/ground_pelvis/pelvis_tilt/value	/jointset/ground_pelvis/pelvis_tx/value	/jointset/ground_pelvis/pelvis_ty/value	/jointset/hip_r/hip_flexion_r/value	/jointset/hip_r/hip_adduction_r/value	/jointset/hip_r/hip_rotation_r/value	/jointset/back/lumbar_extension/value	/jointset/patellofemoral_r/patellar_flexion_r/value	/jointset/knee_r/knee_flexion_r/value	/jointset/knee_r/knee_adduction_r/value	/jointset/knee_r/knee_rotation_r/value	/jointset/ankle_r/ankle_angle_r/value	/jointset/subtalar_r/subtalar_angle_r/value	/jointset/ground_pelvis/pelvis_tilt/speed	/jointset/ground_pelvis/pelvis_tx/speed	/jointset/ground_pelvis/pelvis_ty/speed	/jointset/hip_r/hip_flexion_r/speed	/jointset/hip_r/hip_adduction_r/speed	/jointset/hip_r/hip_rotation_r/speed	/jointset/back/lumbar_extension/speed	/jointset/patellofemoral_r/patellar_flexion_r/speed	/jointset/knee_r/knee_flexion_r/speed	/jointset/knee_r/knee_adduction_r/speed	/jointset/knee_r/knee_rotation_r/speed	/jointset/ankle_r/ankle_angle_r/speed	/jointset/subtalar_r/subtalar_angle_r/speed	/forceset/tau_hip_flexion_r	/forceset/tau_hip_adduction_r	/forceset/tau_hip_rotation_r	/forceset/tau_knee_flexion_r	/forceset/tau_ankle_angle_r	/forceset/tau_subtalar_angle_r	/forceset/tau_lumbar_extension	lambda_cid13_p0	lambda_cid14_p0	lambda_cid14_p1	lambda_cid14_p2	lambda_cid14_p3	lambda_cid14_p4	lambda_cid14_p5	/jointset/ground_pelvis/pelvis_tilt/accel	/jointset/ground_pelvis/pelvis_tx/accel	/jointset/ground_pelvis/pelvis_ty/accel	/jointset/hip_r/hip_flexion_r/accel	/jointset/hip_r/hip_adduction_r/accel	/jointset/hip_r/hip_rotation_r/accel	/jointset/back/lumbar_extension/accel	/jointset/patellofemoral_r/patellar_flexion_r/accel	/jointset/knee_r/knee_flexion_r/accel	/jointset/knee_r/knee_adduction_r/accel	/jointset/knee_r/knee_rotation_r/accel	/jointset/ankle_r/ankle_angle_r/accel	/jointset/subtalar_r/subtalar_angle_r/accel	gamma_cid13_p0	gamma_cid14_p0	gamma_cid14_p1	gamma_cid14_p2	gamma_cid14_p3	gamma_cid14_p4	gamma_cid14_p5
1.5	-0.107875892464235	0.04032538211084402	0.8169622829335226	0.8226633858462534	-0.2402684549420398	-0.08751094097033608	-0.6246160999034004	0.9379730470968682	0.9379730470968505	0.01681385780623445	0.1744439062671452	0.3049399036287961	0.1150574041167999	0.5165440986034404	0.2197584670162547	0.5035924895291183	-2.053137540479073	0.01160631985502493	-0.3324301666481752	0.8012472557302257	-1.960023789884738	-1.960023789884739	0.3183754576314834	0.0005722455261822377	-0.5229894154382398	-0.1713539760465985	-0.1714264206790579	0.01345725304503608	0.02729925026848441	-0.2863013965670064	-0.009491370484217417	-0.01300121257741854	0.2185927916000229	-8.974715621313885	-45.5921223837626	-12.76835304955712	1.474176064045579	-0.8761200217668352	-629.0628520254257	52.78405651979264	0.1287944113169923	0.5350072950997075	-0.5153128840836378	-0.9691010520869784	-0.09950188997006228	-0.2633459237482696	1.766966201109416	-1.339778685157592	-1.339778685157592	0.6998646119378334	-0.05885546134962746	-0.6522348131883268	-0.2314676866369469	3.407462666082583e-08	-1.582634591663767e-07	-2.888691603644692e-06	-1.462175865276441e-06	4.051858707324294e-07	3.24654687028345e-08	-1.815494285638566e-06
1.51	-0.1027044503840911	0.0425494843534952	0.821971436649262	0.8020857224218848	-0.2401575312196084	-0.09085237308657029	-0.6165167516828394	0.918308064677637	0.9183080646776324	0.02002961598148438	0.1744494571821882	0.2996781393113638	0.1133324884665075	0.5176672337414775	0.22503442449064	0.4981331792621452	-2.062124715686037	0.01057320594409255	-0.3358669479408604	0.818510572264308	-1.972704753880496	-1.972704753880496	0.3247412147600549	0.0005464018271507137	-0.5292816401223358	-0.1735979324299513	-0.1638371998422219	0.01160683627901746	0.02706374596489995	-0.282841602221637	-0.00724643596008921	-0.01353720212602889	0.2117545794650354	-10.01676151595671	-44.58455759569541	-12.68002750783632	1.294824605787824	-1.040729059968149	-624.2368682555626	52.81298691805578	0.09249383765372479	0.5198313849657545	-0.5770022343246001	-0.82298368776105	-0.1063941624490702	-0.3854448856852738	1.689241961822126	-1.192067843483511	-1.192067843483311	0.5993191003856582	0.02645339604161428	-0.6053601899015809	-0.2167637495402622	2.346119764289767e-08	-1.596034942506956e-07	-2.688689527893272e-06	-1.502147710536661e-06	3.851465472409839e-07	7.794867170240505e-09	-1.615324054955544e-06
1.52	-0.09752409279804389	0.04482553445316154	0.8269228448350674	0.7814262956588968	-0.240057174240441	-0.09422849314646446	-0.608248124780484	0.8985243101011131	0.8985243101011142	0.02330790929545149	0.1744549301042783	0.2943559239683137	0.111585952425311	0.5183271997837813	0.2301480384192818	0.4920433835423431	-2.069490208203407	0.009492971201383831	-0.3393677553798077	0.8351029920889766	-1.983778221344199	-1.983778221344196	0.3308824853713759	0.0005566469369810365	-0.5350796205616842	-0.1756780542275354	-0.1562479790053788	0.009756419513009909	0.0268282416612388	-0.2793818078762702	-0.005001501435956783	-0.01407319167461933	0.2049163673300543	-11.06216261127179	-43.57914959841296	-12.59255325276993	1.116151634597726	-1.199007544771115	-619.4334501860175	52.83459686372518	0.03616059217021694	0.5025385859510774	-0.6414099746494631	-0.6447645141684633	-0.1089260563253286	-0.2761511530007028	1.632786859226642	-1.018279378746478	-1.018279378746479	0.6549673084877298	-0.05163769957725093	-0.5533859642387382	-0.1987007694831937	1.834687545828497e-08	-1.627801589817662e-07	-2.605638296229082e-06	-1.56402525322612e-06	3.7823798646079e-07	-1.293277371874322e-08	-1.485623751405786e-06
1.53	-0.09233948398267644	0.04715184348441663	0.8318102623354515	0.7607014141564996	-0.2399677741060174	-0.09763963077829142	-0.5998170236240423	0.878637975738439	0.8786379757384436	0.02664667757733652	0.1744604964023329	0.2889782547089217	0.1098195518351261	0.5185162620992437	0.2350794746141943	0.4853412938019422	-2.075208125736476	0.008378330354731517	-0.3428143417802313	0.8509924918360705	-1.993207517470017	-1.993207517470015	0.3368810780542344	0.0005352802833365826	-0.5403695445868256	-0.1775784847978248	-0.1486701186501551	0.007886053435444428	0.02647144068441787	-0.2760204034403568	-0.002793105874702234	-0.01459197709927941	0.1980762313008637	-12.10700761285022	-42.6005295707433	-12.50099646412644	0.9353401087782407	-1.321809043970884	-614.8574702576885	52.8838946569457	-0.001483048133195121	0.4833799640811871	-0.6994395485685418	-0.4936337229878837	-0.1144837279354933	-0.3721147876808676	1.548319427884534	-0.8630885645143747	-0.8630885645146221	0.5733946620188477	0.01902042545602623	-0.5040033384500335	-0.182798384058368	1.907535428406988e-08	-1.679082427125104e-07	-2.646847336407573e-06	-1.649177599434145e-06	3.852808610613009e-07	-2.947101892389108e-08	-1.430797745435119e-06
